<mxfile modified="2023-11-08T01:24:32.608Z" host="Electron" agent="Mozilla/5.0 (Macintosh; Intel Mac OS X 10_15_7) AppleWebKit/537.36 (KHTML, like Gecko) draw.io/21.3.7 Chrome/112.0.5615.204 Electron/24.5.0 Safari/537.36" etag="as9txNHTH8GIbW6YPbad" version="21.3.7" type="device">
  <diagram id="Ht1M8jgEwFfnCIfOTk4-" name="Page-1">
    <mxGraphModel dx="234" dy="2454" grid="0" gridSize="10" guides="1" tooltips="1" connect="1" arrows="1" fold="1" page="0" pageScale="1" pageWidth="1169" pageHeight="827" math="0" shadow="0">
      <root>
        <mxCell id="0" />
        <mxCell id="1" parent="0" />
        <mxCell id="RSeljk1LCCafGuoAsfYu-33" value="AWS Accounts" style="points=[[0,0],[0.25,0],[0.5,0],[0.75,0],[1,0],[1,0.25],[1,0.5],[1,0.75],[1,1],[0.75,1],[0.5,1],[0.25,1],[0,1],[0,0.75],[0,0.5],[0,0.25]];outlineConnect=0;gradientColor=none;html=1;whiteSpace=wrap;fontSize=12;fontStyle=0;container=1;pointerEvents=0;collapsible=0;recursiveResize=0;shape=mxgraph.aws4.group;grIcon=mxgraph.aws4.group_account;strokeColor=#0066CC;fillColor=default;verticalAlign=top;align=left;spacingLeft=30;fontColor=#000000;dashed=0;" parent="1" vertex="1">
          <mxGeometry x="1919" y="-1103" width="200" height="130" as="geometry" />
        </mxCell>
        <mxCell id="RSeljk1LCCafGuoAsfYu-31" value="AWS Accounts" style="points=[[0,0],[0.25,0],[0.5,0],[0.75,0],[1,0],[1,0.25],[1,0.5],[1,0.75],[1,1],[0.75,1],[0.5,1],[0.25,1],[0,1],[0,0.75],[0,0.5],[0,0.25]];outlineConnect=0;gradientColor=none;html=1;whiteSpace=wrap;fontSize=12;fontStyle=0;container=1;pointerEvents=0;collapsible=0;recursiveResize=0;shape=mxgraph.aws4.group;grIcon=mxgraph.aws4.group_account;strokeColor=#0066CC;fillColor=default;verticalAlign=top;align=left;spacingLeft=30;fontColor=#000000;dashed=0;" parent="1" vertex="1">
          <mxGeometry x="1909" y="-1113" width="200" height="130" as="geometry" />
        </mxCell>
        <mxCell id="MgDUq_ciPoKLxVTJab2Q-175" value="AWS Spoke Accounts" style="points=[[0,0],[0.25,0],[0.5,0],[0.75,0],[1,0],[1,0.25],[1,0.5],[1,0.75],[1,1],[0.75,1],[0.5,1],[0.25,1],[0,1],[0,0.75],[0,0.5],[0,0.25]];outlineConnect=0;gradientColor=none;html=1;whiteSpace=wrap;fontSize=12;fontStyle=0;container=1;pointerEvents=0;collapsible=0;recursiveResize=0;shape=mxgraph.aws4.group;grIcon=mxgraph.aws4.group_account;strokeColor=#0066CC;fillColor=default;verticalAlign=top;align=left;spacingLeft=30;fontColor=#000000;dashed=0;" parent="1" vertex="1">
          <mxGeometry x="1899" y="-1123" width="202" height="130" as="geometry" />
        </mxCell>
        <mxCell id="RSeljk1LCCafGuoAsfYu-29" value="Shared Resolver Rules:&lt;br&gt;on-premises&lt;br&gt;on-aws" style="text;html=1;strokeColor=none;fillColor=none;align=center;verticalAlign=middle;whiteSpace=wrap;rounded=0;" parent="MgDUq_ciPoKLxVTJab2Q-175" vertex="1">
          <mxGeometry x="2" y="73" width="200" height="48" as="geometry" />
        </mxCell>
        <mxCell id="4yJNp-4H21KhQQhFzxLv-4" value=".2" style="sketch=0;outlineConnect=0;fontColor=#232F3E;gradientColor=none;fillColor=#4D27AA;strokeColor=none;dashed=0;verticalLabelPosition=top;verticalAlign=bottom;align=center;html=1;fontSize=12;fontStyle=1;aspect=fixed;pointerEvents=1;shape=mxgraph.aws4.route_53_resolver;spacingTop=-8;spacingLeft=20;labelPosition=center;" parent="MgDUq_ciPoKLxVTJab2Q-175" vertex="1">
          <mxGeometry x="159" y="27" width="32" height="32" as="geometry" />
        </mxCell>
        <mxCell id="4yJNp-4H21KhQQhFzxLv-23" style="edgeStyle=orthogonalEdgeStyle;curved=1;rounded=0;orthogonalLoop=1;jettySize=auto;html=1;strokeWidth=4;fillColor=#e1d5e7;strokeColor=#9673a6;dashed=1;" parent="1" source="4yJNp-4H21KhQQhFzxLv-4" edge="1">
          <mxGeometry relative="1" as="geometry">
            <mxPoint x="1741" y="-1297" as="targetPoint" />
            <Array as="points">
              <mxPoint x="1741" y="-1078" />
            </Array>
          </mxGeometry>
        </mxCell>
        <mxCell id="5HDOg_TwFH_2r1NDY2ZI-5" value="AWS Cloud" style="points=[[0,0],[0.25,0],[0.5,0],[0.75,0],[1,0],[1,0.25],[1,0.5],[1,0.75],[1,1],[0.75,1],[0.5,1],[0.25,1],[0,1],[0,0.75],[0,0.5],[0,0.25]];outlineConnect=0;gradientColor=none;html=1;whiteSpace=wrap;fontSize=12;fontStyle=0;shape=mxgraph.aws4.group;grIcon=mxgraph.aws4.group_aws_cloud_alt;strokeColor=#232F3E;fillColor=none;verticalAlign=top;align=left;spacingLeft=30;fontColor=#232F3E;dashed=0;labelBackgroundColor=#ffffff;container=0;pointerEvents=0;collapsible=0;recursiveResize=0;labelBorderColor=none;spacingTop=2;" parent="1" vertex="1">
          <mxGeometry x="1240" y="-1580" width="917" height="788" as="geometry" />
        </mxCell>
        <mxCell id="RSeljk1LCCafGuoAsfYu-23" style="rounded=0;orthogonalLoop=1;jettySize=auto;html=1;entryX=0.5;entryY=1;entryDx=0;entryDy=0;startArrow=none;startFill=0;endArrow=none;endFill=0;exitX=0.5;exitY=0;exitDx=0;exitDy=0;exitPerimeter=0;strokeWidth=2;" parent="1" source="5HDOg_TwFH_2r1NDY2ZI-139" target="5HDOg_TwFH_2r1NDY2ZI-28" edge="1">
          <mxGeometry relative="1" as="geometry">
            <mxPoint x="2110.5" y="-1070" as="targetPoint" />
          </mxGeometry>
        </mxCell>
        <mxCell id="4yJNp-4H21KhQQhFzxLv-35" style="edgeStyle=orthogonalEdgeStyle;rounded=0;orthogonalLoop=1;jettySize=auto;html=1;entryX=0;entryY=0.5;entryDx=0;entryDy=0;strokeWidth=2;endArrow=none;endFill=0;" parent="1" source="5HDOg_TwFH_2r1NDY2ZI-139" target="4yJNp-4H21KhQQhFzxLv-19" edge="1">
          <mxGeometry relative="1" as="geometry">
            <Array as="points">
              <mxPoint x="1701" y="-885" />
            </Array>
          </mxGeometry>
        </mxCell>
        <mxCell id="5HDOg_TwFH_2r1NDY2ZI-139" value="Transit Gateway" style="sketch=0;points=[[0,0,0],[0.25,0,0],[0.5,0,0],[0.75,0,0],[1,0,0],[0,1,0],[0.25,1,0],[0.5,1,0],[0.75,1,0],[1,1,0],[0,0.25,0],[0,0.5,0],[0,0.75,0],[1,0.25,0],[1,0.5,0],[1,0.75,0]];outlineConnect=0;fontColor=#232F3E;gradientColor=#945DF2;gradientDirection=north;fillColor=#5A30B5;strokeColor=#ffffff;dashed=0;verticalLabelPosition=bottom;verticalAlign=top;align=center;html=1;fontSize=12;fontStyle=0;aspect=fixed;shape=mxgraph.aws4.resourceIcon;resIcon=mxgraph.aws4.transit_gateway;labelBackgroundColor=default;labelBorderColor=none;" parent="1" vertex="1">
          <mxGeometry x="1661.5" y="-1097" width="78" height="78" as="geometry" />
        </mxCell>
        <mxCell id="RSeljk1LCCafGuoAsfYu-30" style="edgeStyle=orthogonalEdgeStyle;rounded=0;orthogonalLoop=1;jettySize=auto;html=1;entryX=1;entryY=0.5;entryDx=0;entryDy=0;entryPerimeter=0;startArrow=none;startFill=0;endArrow=none;endFill=0;strokeWidth=2;" parent="1" source="MgDUq_ciPoKLxVTJab2Q-175" target="5HDOg_TwFH_2r1NDY2ZI-139" edge="1">
          <mxGeometry relative="1" as="geometry" />
        </mxCell>
        <mxCell id="RSeljk1LCCafGuoAsfYu-25" style="edgeStyle=orthogonalEdgeStyle;rounded=0;orthogonalLoop=1;jettySize=auto;html=1;entryX=1;entryY=0.5;entryDx=0;entryDy=0;startArrow=none;startFill=0;endArrow=none;endFill=0;exitX=0;exitY=0.5;exitDx=0;exitDy=0;exitPerimeter=0;strokeWidth=2;" parent="1" source="5HDOg_TwFH_2r1NDY2ZI-139" target="4yJNp-4H21KhQQhFzxLv-1" edge="1">
          <mxGeometry relative="1" as="geometry">
            <mxPoint x="2039" y="-1058" as="sourcePoint" />
            <mxPoint x="2107" y="-1057.5" as="targetPoint" />
          </mxGeometry>
        </mxCell>
        <mxCell id="RSeljk1LCCafGuoAsfYu-19" value="Optional DNS Conditional Forwarding rules:&lt;br&gt;on.aws -&amp;gt; Route53 Resolver Inbound Endpoints" style="text;html=1;strokeColor=none;fillColor=none;align=center;verticalAlign=middle;whiteSpace=wrap;rounded=0;" parent="1" vertex="1">
          <mxGeometry x="1258" y="-986" width="259" height="30" as="geometry" />
        </mxCell>
        <mxCell id="5HDOg_TwFH_2r1NDY2ZI-28" value="&lt;font color=&quot;#000000&quot;&gt;Network Account&lt;/font&gt;" style="points=[[0,0],[0.25,0],[0.5,0],[0.75,0],[1,0],[1,0.25],[1,0.5],[1,0.75],[1,1],[0.75,1],[0.5,1],[0.25,1],[0,1],[0,0.75],[0,0.5],[0,0.25]];outlineConnect=0;gradientColor=none;html=1;whiteSpace=wrap;fontSize=12;fontStyle=0;container=1;pointerEvents=0;collapsible=0;recursiveResize=0;shape=mxgraph.aws4.group;grIcon=mxgraph.aws4.group_account;strokeColor=#0066CC;fillColor=none;verticalAlign=top;align=left;spacingLeft=30;fontColor=#3399FF;dashed=0;labelBackgroundColor=default;labelBorderColor=none;" parent="1" vertex="1">
          <mxGeometry x="1281" y="-1520" width="838" height="315" as="geometry" />
        </mxCell>
        <mxCell id="RSeljk1LCCafGuoAsfYu-43" value="Private&lt;br&gt;Hosted zone&lt;br&gt;(on.aws)" style="sketch=0;outlineConnect=0;fontColor=#232F3E;gradientColor=none;strokeColor=#232F3E;fillColor=#ffffff;dashed=0;verticalLabelPosition=bottom;verticalAlign=top;align=center;html=1;fontSize=12;fontStyle=0;aspect=fixed;shape=mxgraph.aws4.resourceIcon;resIcon=mxgraph.aws4.hosted_zone;" parent="5HDOg_TwFH_2r1NDY2ZI-28" vertex="1">
          <mxGeometry x="750" y="5.9999999999999165" width="60" height="60" as="geometry" />
        </mxCell>
        <mxCell id="4yJNp-4H21KhQQhFzxLv-25" value="Querying: *.dev.on.aws" style="text;html=1;strokeColor=#9673a6;fillColor=#e1d5e7;align=center;verticalAlign=middle;whiteSpace=wrap;rounded=0;" parent="5HDOg_TwFH_2r1NDY2ZI-28" vertex="1">
          <mxGeometry x="519" y="275" width="185" height="30" as="geometry" />
        </mxCell>
        <mxCell id="5HDOg_TwFH_2r1NDY2ZI-14" value="Region" style="points=[[0,0],[0.25,0],[0.5,0],[0.75,0],[1,0],[1,0.25],[1,0.5],[1,0.75],[1,1],[0.75,1],[0.5,1],[0.25,1],[0,1],[0,0.75],[0,0.5],[0,0.25]];outlineConnect=0;gradientColor=none;html=1;whiteSpace=wrap;fontSize=12;fontStyle=0;container=1;pointerEvents=0;collapsible=0;recursiveResize=0;shape=mxgraph.aws4.group;grIcon=mxgraph.aws4.group_region;strokeColor=#147EBA;fillColor=none;verticalAlign=top;align=left;spacingLeft=30;fontColor=#147EBA;dashed=1;" parent="1" vertex="1">
          <mxGeometry x="1310.17" y="-1473.33" width="682.83" height="220.33" as="geometry" />
        </mxCell>
        <mxCell id="RSeljk1LCCafGuoAsfYu-26" value="Route53 Resolver Rules&lt;br&gt;(Shared with the organization)" style="text;html=1;strokeColor=none;fillColor=none;align=center;verticalAlign=middle;whiteSpace=wrap;rounded=0;" parent="5HDOg_TwFH_2r1NDY2ZI-14" vertex="1">
          <mxGeometry x="26.919999999999998" y="155.33" width="167.99" height="30" as="geometry" />
        </mxCell>
        <mxCell id="RSeljk1LCCafGuoAsfYu-37" value="Endpoints VPC" style="points=[[0,0],[0.25,0],[0.5,0],[0.75,0],[1,0],[1,0.25],[1,0.5],[1,0.75],[1,1],[0.75,1],[0.5,1],[0.25,1],[0,1],[0,0.75],[0,0.5],[0,0.25]];outlineConnect=0;gradientColor=none;html=1;whiteSpace=wrap;fontSize=12;fontStyle=0;container=1;pointerEvents=0;collapsible=0;recursiveResize=0;shape=mxgraph.aws4.group;grIcon=mxgraph.aws4.group_vpc;strokeColor=#248814;fillColor=none;verticalAlign=top;align=left;spacingLeft=30;fontColor=#AAB7B8;dashed=0;" parent="5HDOg_TwFH_2r1NDY2ZI-14" vertex="1">
          <mxGeometry x="348.83" y="26" width="307.17" height="167.33" as="geometry" />
        </mxCell>
        <mxCell id="5HDOg_TwFH_2r1NDY2ZI-45" value="Route53 Resolver&lt;br&gt;Outbound Endpoints" style="sketch=0;outlineConnect=0;fontColor=#232F3E;gradientColor=none;fillColor=#4D27AA;strokeColor=none;dashed=0;verticalLabelPosition=bottom;verticalAlign=top;align=center;html=1;fontSize=12;fontStyle=0;aspect=fixed;pointerEvents=1;shape=mxgraph.aws4.endpoints;labelBackgroundColor=default;labelBorderColor=none;spacingTop=0;" parent="RSeljk1LCCafGuoAsfYu-37" vertex="1">
          <mxGeometry x="52.004065040650346" y="55.66999999999993" width="56" height="56" as="geometry" />
        </mxCell>
        <mxCell id="RSeljk1LCCafGuoAsfYu-41" value="Route53 Resolver&lt;br&gt;Inbound Endpoints" style="sketch=0;outlineConnect=0;fontColor=#232F3E;gradientColor=none;fillColor=#4D27AA;strokeColor=none;dashed=0;verticalLabelPosition=bottom;verticalAlign=top;align=center;html=1;fontSize=12;fontStyle=0;aspect=fixed;pointerEvents=1;shape=mxgraph.aws4.endpoints;labelBackgroundColor=default;labelBorderColor=none;spacingTop=0;" parent="RSeljk1LCCafGuoAsfYu-37" vertex="1">
          <mxGeometry x="212.00406504064995" y="55.66999999999982" width="56" height="56" as="geometry" />
        </mxCell>
        <mxCell id="PRrpQUBeJZm0Kaqr35Qx-1" style="edgeStyle=orthogonalEdgeStyle;curved=1;rounded=0;orthogonalLoop=1;jettySize=auto;html=1;strokeWidth=4;fillColor=#e1d5e7;strokeColor=#9673a6;" parent="RSeljk1LCCafGuoAsfYu-37" source="5HDOg_TwFH_2r1NDY2ZI-45" target="RSeljk1LCCafGuoAsfYu-41" edge="1">
          <mxGeometry relative="1" as="geometry">
            <mxPoint x="250" y="157.32999999999993" as="targetPoint" />
            <Array as="points">
              <mxPoint x="160" y="98" />
              <mxPoint x="160" y="98" />
            </Array>
            <mxPoint x="407" y="366.3299999999999" as="sourcePoint" />
          </mxGeometry>
        </mxCell>
        <mxCell id="PRrpQUBeJZm0Kaqr35Qx-3" style="edgeStyle=orthogonalEdgeStyle;curved=1;rounded=0;orthogonalLoop=1;jettySize=auto;html=1;strokeWidth=4;fillColor=#e1d5e7;strokeColor=#D79B00;" parent="RSeljk1LCCafGuoAsfYu-37" source="5HDOg_TwFH_2r1NDY2ZI-45" target="RSeljk1LCCafGuoAsfYu-41" edge="1">
          <mxGeometry relative="1" as="geometry">
            <mxPoint x="222.00406504064995" y="93.62999999999988" as="targetPoint" />
            <Array as="points">
              <mxPoint x="160" y="69" />
              <mxPoint x="160" y="69" />
            </Array>
            <mxPoint x="118.0040650406504" y="93.62999999999988" as="sourcePoint" />
          </mxGeometry>
        </mxCell>
        <mxCell id="4yJNp-4H21KhQQhFzxLv-16" style="edgeStyle=orthogonalEdgeStyle;curved=1;rounded=0;orthogonalLoop=1;jettySize=auto;html=1;entryX=0;entryY=0.5;entryDx=0;entryDy=0;strokeWidth=1;dashed=1;" parent="5HDOg_TwFH_2r1NDY2ZI-14" source="MgDUq_ciPoKLxVTJab2Q-99" target="RSeljk1LCCafGuoAsfYu-37" edge="1">
          <mxGeometry relative="1" as="geometry" />
        </mxCell>
        <mxCell id="4yJNp-4H21KhQQhFzxLv-27" value="VPC Association" style="edgeLabel;html=1;align=center;verticalAlign=middle;resizable=0;points=[];" parent="4yJNp-4H21KhQQhFzxLv-16" vertex="1" connectable="0">
          <mxGeometry x="0.0342" y="-1" relative="1" as="geometry">
            <mxPoint x="-9" y="-1" as="offset" />
          </mxGeometry>
        </mxCell>
        <mxCell id="MgDUq_ciPoKLxVTJab2Q-99" value="&lt;table style=&quot;width: 100% ; height: 100% ; border-collapse: collapse&quot; width=&quot;100%&quot; cellpadding=&quot;4&quot; border=&quot;1&quot;&gt;&lt;tbody&gt;&lt;tr style=&quot;background-color: #a7c942 ; color: #ffffff ; border: 1px solid #98bf21&quot;&gt;&lt;th align=&quot;left&quot;&gt;Domain&lt;/th&gt;&lt;th align=&quot;left&quot;&gt;IP&lt;/th&gt;&lt;/tr&gt;&lt;tr style=&quot;border: 1px solid #98bf21&quot;&gt;&lt;td&gt;on.premises&lt;/td&gt;&lt;td&gt;DNS Server IP&lt;/td&gt;&lt;/tr&gt;&lt;tr&gt;&lt;td&gt;on.aws&lt;/td&gt;&lt;td&gt;Resolver Inbound&lt;/td&gt;&lt;/tr&gt;&lt;/tbody&gt;&lt;/table&gt;" style="text;html=1;strokeColor=#c0c0c0;fillColor=#ffffff;overflow=fill;rounded=0;" parent="5HDOg_TwFH_2r1NDY2ZI-14" vertex="1">
          <mxGeometry x="16.83" y="72.5" width="188.17" height="74.33" as="geometry" />
        </mxCell>
        <mxCell id="4yJNp-4H21KhQQhFzxLv-1" value="Shared Account" style="points=[[0,0],[0.25,0],[0.5,0],[0.75,0],[1,0],[1,0.25],[1,0.5],[1,0.75],[1,1],[0.75,1],[0.5,1],[0.25,1],[0,1],[0,0.75],[0,0.5],[0,0.25]];outlineConnect=0;gradientColor=none;html=1;whiteSpace=wrap;fontSize=12;fontStyle=0;container=1;pointerEvents=0;collapsible=0;recursiveResize=0;shape=mxgraph.aws4.group;grIcon=mxgraph.aws4.group_account;strokeColor=#0066CC;fillColor=default;verticalAlign=top;align=left;spacingLeft=30;fontColor=#000000;dashed=0;" parent="1" vertex="1">
          <mxGeometry x="1283" y="-1123" width="200" height="130" as="geometry" />
        </mxCell>
        <mxCell id="4yJNp-4H21KhQQhFzxLv-3" value="DC and DNS Server&lt;br&gt;(on.premises)" style="sketch=0;points=[[0,0,0],[0.25,0,0],[0.5,0,0],[0.75,0,0],[1,0,0],[0,1,0],[0.25,1,0],[0.5,1,0],[0.75,1,0],[1,1,0],[0,0.25,0],[0,0.5,0],[0,0.75,0],[1,0.25,0],[1,0.5,0],[1,0.75,0]];outlineConnect=0;fontColor=#232F3E;gradientColor=#F78E04;gradientDirection=north;fillColor=#D05C17;strokeColor=#ffffff;dashed=0;verticalLabelPosition=bottom;verticalAlign=top;align=center;html=1;fontSize=12;fontStyle=0;aspect=fixed;shape=mxgraph.aws4.resourceIcon;resIcon=mxgraph.aws4.ec2;" parent="4yJNp-4H21KhQQhFzxLv-1" vertex="1">
          <mxGeometry x="61" y="28" width="64" height="64" as="geometry" />
        </mxCell>
        <mxCell id="4yJNp-4H21KhQQhFzxLv-8" style="edgeStyle=orthogonalEdgeStyle;rounded=0;orthogonalLoop=1;jettySize=auto;html=1;strokeWidth=4;dashed=1;fillColor=#d5e8d4;strokeColor=#82b366;curved=1;" parent="1" source="4yJNp-4H21KhQQhFzxLv-4" edge="1">
          <mxGeometry relative="1" as="geometry">
            <mxPoint x="1710" y="-1297" as="targetPoint" />
            <Array as="points">
              <mxPoint x="1710" y="-1066" />
            </Array>
          </mxGeometry>
        </mxCell>
        <mxCell id="4yJNp-4H21KhQQhFzxLv-9" style="edgeStyle=orthogonalEdgeStyle;curved=1;rounded=0;orthogonalLoop=1;jettySize=auto;html=1;strokeWidth=4;fillColor=#d5e8d4;strokeColor=#82b366;entryX=1;entryY=0.5;entryDx=0;entryDy=0;entryPerimeter=0;" parent="1" source="5HDOg_TwFH_2r1NDY2ZI-45" target="4yJNp-4H21KhQQhFzxLv-3" edge="1">
          <mxGeometry relative="1" as="geometry">
            <mxPoint x="1961.9753658536583" y="-1361.3" as="sourcePoint" />
            <Array as="points">
              <mxPoint x="1634" y="-1364" />
              <mxPoint x="1634" y="-1063" />
            </Array>
          </mxGeometry>
        </mxCell>
        <mxCell id="4yJNp-4H21KhQQhFzxLv-14" style="edgeStyle=orthogonalEdgeStyle;curved=1;rounded=0;orthogonalLoop=1;jettySize=auto;html=1;strokeWidth=4;fillColor=#ffe6cc;strokeColor=#d79b00;dashed=1;" parent="1" source="4yJNp-4H21KhQQhFzxLv-4" edge="1">
          <mxGeometry relative="1" as="geometry">
            <mxPoint x="1767" y="-1296" as="targetPoint" />
            <Array as="points">
              <mxPoint x="1767" y="-1089" />
            </Array>
          </mxGeometry>
        </mxCell>
        <mxCell id="RSeljk1LCCafGuoAsfYu-42" style="edgeStyle=orthogonalEdgeStyle;rounded=0;orthogonalLoop=1;jettySize=auto;html=1;entryX=0.5;entryY=0;entryDx=0;entryDy=0;dashed=1;" parent="1" source="RSeljk1LCCafGuoAsfYu-43" target="RSeljk1LCCafGuoAsfYu-37" edge="1">
          <mxGeometry relative="1" as="geometry">
            <Array as="points">
              <mxPoint x="1813" y="-1493" />
            </Array>
          </mxGeometry>
        </mxCell>
        <mxCell id="4yJNp-4H21KhQQhFzxLv-26" value="VPC Association" style="edgeLabel;html=1;align=center;verticalAlign=middle;resizable=0;points=[];" parent="RSeljk1LCCafGuoAsfYu-42" vertex="1" connectable="0">
          <mxGeometry x="0.2269" relative="1" as="geometry">
            <mxPoint x="50" as="offset" />
          </mxGeometry>
        </mxCell>
        <mxCell id="4yJNp-4H21KhQQhFzxLv-12" value="Querying: *.on.aws" style="text;html=1;strokeColor=#d79b00;fillColor=#ffe6cc;align=center;verticalAlign=middle;whiteSpace=wrap;rounded=0;" parent="1" vertex="1">
          <mxGeometry x="1875" y="-1179" width="185" height="30" as="geometry" />
        </mxCell>
        <mxCell id="4yJNp-4H21KhQQhFzxLv-18" style="edgeStyle=orthogonalEdgeStyle;curved=1;rounded=0;orthogonalLoop=1;jettySize=auto;html=1;strokeWidth=4;fillColor=#ffe6cc;strokeColor=#d79b00;dashed=1;" parent="1" source="RSeljk1LCCafGuoAsfYu-41" target="RSeljk1LCCafGuoAsfYu-43" edge="1">
          <mxGeometry relative="1" as="geometry">
            <Array as="points">
              <mxPoint x="1908" y="-1474" />
            </Array>
          </mxGeometry>
        </mxCell>
        <mxCell id="4yJNp-4H21KhQQhFzxLv-19" value="AWS Dev Account" style="points=[[0,0],[0.25,0],[0.5,0],[0.75,0],[1,0],[1,0.25],[1,0.5],[1,0.75],[1,1],[0.75,1],[0.5,1],[0.25,1],[0,1],[0,0.75],[0,0.5],[0,0.25]];outlineConnect=0;gradientColor=none;html=1;whiteSpace=wrap;fontSize=12;fontStyle=0;container=1;pointerEvents=0;collapsible=0;recursiveResize=0;shape=mxgraph.aws4.group;grIcon=mxgraph.aws4.group_account;strokeColor=#0066CC;fillColor=default;verticalAlign=top;align=left;spacingLeft=30;fontColor=#000000;dashed=0;" parent="1" vertex="1">
          <mxGeometry x="1899" y="-950" width="200" height="130" as="geometry" />
        </mxCell>
        <mxCell id="4yJNp-4H21KhQQhFzxLv-22" value="Private Hosted zone&lt;br&gt;(dev.on.aws)" style="sketch=0;outlineConnect=0;fontColor=#232F3E;gradientColor=none;strokeColor=#232F3E;fillColor=#ffffff;dashed=0;verticalLabelPosition=bottom;verticalAlign=top;align=center;html=1;fontSize=12;fontStyle=0;aspect=fixed;shape=mxgraph.aws4.resourceIcon;resIcon=mxgraph.aws4.hosted_zone;" parent="4yJNp-4H21KhQQhFzxLv-19" vertex="1">
          <mxGeometry x="70" y="27.999999999999886" width="60" height="60" as="geometry" />
        </mxCell>
        <mxCell id="4yJNp-4H21KhQQhFzxLv-24" style="edgeStyle=orthogonalEdgeStyle;curved=1;rounded=0;orthogonalLoop=1;jettySize=auto;html=1;dashed=1;strokeWidth=4;fillColor=#e1d5e7;strokeColor=#9673a6;" parent="1" source="RSeljk1LCCafGuoAsfYu-41" target="4yJNp-4H21KhQQhFzxLv-22" edge="1">
          <mxGeometry relative="1" as="geometry">
            <Array as="points">
              <mxPoint x="2189" y="-1370" />
              <mxPoint x="2189" y="-903" />
            </Array>
          </mxGeometry>
        </mxCell>
        <mxCell id="4yJNp-4H21KhQQhFzxLv-11" value="Querying: *.on.premises" style="text;html=1;strokeColor=#82b366;fillColor=#d5e8d4;align=center;verticalAlign=middle;whiteSpace=wrap;rounded=0;" parent="1" vertex="1">
          <mxGeometry x="1492" y="-1190" width="185" height="30" as="geometry" />
        </mxCell>
        <mxCell id="4yJNp-4H21KhQQhFzxLv-33" style="edgeStyle=orthogonalEdgeStyle;rounded=0;orthogonalLoop=1;jettySize=auto;html=1;strokeWidth=1;dashed=1;" parent="1" source="4yJNp-4H21KhQQhFzxLv-22" edge="1">
          <mxGeometry relative="1" as="geometry">
            <mxPoint x="1795" y="-1447" as="targetPoint" />
            <Array as="points">
              <mxPoint x="2218" y="-880" />
              <mxPoint x="2218" y="-1546" />
              <mxPoint x="1795" y="-1546" />
              <mxPoint x="1795" y="-1447" />
            </Array>
          </mxGeometry>
        </mxCell>
        <mxCell id="4yJNp-4H21KhQQhFzxLv-34" value="VPC Association" style="edgeLabel;html=1;align=center;verticalAlign=middle;resizable=0;points=[];" parent="4yJNp-4H21KhQQhFzxLv-33" vertex="1" connectable="0">
          <mxGeometry x="-0.25" y="-3" relative="1" as="geometry">
            <mxPoint x="-302" y="-338" as="offset" />
          </mxGeometry>
        </mxCell>
        <mxCell id="4yJNp-4H21KhQQhFzxLv-37" value="Communication through routing" style="line;strokeWidth=4;html=1;perimeter=backbonePerimeter;points=[];outlineConnect=0;fillColor=default;align=left;" parent="1" vertex="1">
          <mxGeometry x="1281" y="-898" width="160" height="10" as="geometry" />
        </mxCell>
        <mxCell id="4yJNp-4H21KhQQhFzxLv-38" value="Communication through private link" style="line;strokeWidth=4;html=1;perimeter=backbonePerimeter;points=[];outlineConnect=0;fillColor=default;dashed=1;align=left;" parent="1" vertex="1">
          <mxGeometry x="1281" y="-856" width="160" height="10" as="geometry" />
        </mxCell>
      </root>
    </mxGraphModel>
  </diagram>
</mxfile>
